<?xml version="1.0" encoding="UTF-8" standalone="no"?><!DOCTYPE svg PUBLIC "-//W3C//DTD SVG 1.1//EN" "http://www.w3.org/Graphics/SVG/1.1/DTD/svg11.dtd"><svg width="100%" height="100%" viewBox="0 0 1012 591" version="1.1" xmlns="http://www.w3.org/2000/svg" xmlns:xlink="http://www.w3.org/1999/xlink" xml:space="preserve" xmlns:serif="http://www.serif.com/" style="fill-rule:evenodd;clip-rule:evenodd;stroke-linejoin:round;stroke-miterlimit:2;"><g transform="matrix(1,0,0,1,-9332.98,-9396.26)"><g transform="matrix(1,0,0,1,-4482.37,9151.34)"><g transform="matrix(1.3063,0,0,1.3063,-4138.44,-165.403)"><g transform="matrix(1,0,0,1,-385.017,-179.68)"><g transform="matrix(1,0,0,1,1871.03,-3592.3)"><path d="M12638,4477.11C12632.5,4482.24 12626.8,4487.1 12620.8,4491.66L12576.3,4467.23C12573.6,4468.88 12570.8,4470.45 12567.9,4471.94C12567.6,4472.11 12567.3,4472.28 12567,4472.45C12553.3,4479.51 12538.8,4484.81 12523.8,4488.21L12508.5,4536.52C12490.2,4538.52 12471.8,4538.29 12453.6,4535.83L12439.5,4487.17C12449.7,4488.6 12460.1,4489.34 12470.7,4489.34C12501.3,4489.34 12530.4,4483.17 12557,4472.02C12587.3,4459.29 12614.3,4440.05 12636.1,4416.05C12636.7,4415.46 12637.4,4414.87 12638,4414.28L12638,4477.11Z" style="fill:rgb(222,232,241);"/></g><g transform="matrix(1,0,0,1,1871.03,-3592.3)"><path d="M12576.1,4453.08C12564.1,4459.82 12551.4,4465.46 12538.1,4469.86C12516.4,4477.06 12493.2,4480.95 12469.1,4480.95C12440.9,4480.95 12413.9,4475.6 12389.1,4465.86C12388.5,4465.6 12387.5,4465.21 12387.1,4465.06L12342.5,4488.15C12328.2,4476.66 12315.3,4463.47 12304.2,4448.87L12328.6,4404.45C12318.9,4388.16 12311.8,4370.44 12307.6,4351.95L12259.3,4336.58C12258.8,4331.51 12258.4,4326.42 12258.2,4321.32C12258.1,4320.09 12258.1,4318.86 12258,4317.64C12257.7,4305.64 12258.4,4293.63 12260,4281.72L12308.7,4267.59C12308.6,4268.49 12308.6,4269.38 12308.6,4270.28C12308.6,4378.55 12396.5,4466.46 12504.8,4466.46C12509.7,4466.46 12514.6,4466.28 12519.4,4465.92C12539.3,4464.46 12558.3,4460.03 12576.1,4453.08Z" style="fill:rgb(1,138,190);"/></g><g transform="matrix(1,0,0,1,1871.03,-3592.3)"><path d="M12638,4224.38C12611.4,4189.14 12569.2,4166.34 12521.7,4166.34C12449.1,4166.34 12388.9,4219.5 12377.8,4288.96C12376.6,4281.11 12376,4273.08 12376,4264.9C12376,4212.06 12401.8,4165.21 12441.6,4136.29C12442.5,4135.61 12443.4,4134.95 12444.4,4134.3L12459.3,4087.43C12466,4086.69 12472.7,4086.26 12479.5,4086.13C12482.2,4086.08 12484.9,4086.07 12487.6,4086.12C12496.5,4086.27 12505.3,4086.93 12514.1,4088.12L12528.3,4136.8C12546.6,4141.46 12564.2,4148.98 12580.2,4159.1L12625.2,4135.8C12629.6,4139.32 12633.9,4143 12638,4146.84L12638,4224.38Z" style="fill:rgb(1,138,190);"/></g><g transform="matrix(1,0,0,1,1871.03,-3592.3)"><path d="M12490.3,4455.91C12396.1,4446.9 12322.3,4367.44 12322.3,4270.88C12322.3,4252.04 12325.1,4233.85 12330.3,4216.71C12330.5,4216.21 12330.6,4215.71 12330.8,4215.21L12307.7,4170.6C12319.2,4156.28 12332.4,4143.42 12347,4132.3L12391.4,4156.72C12396,4153.98 12400.7,4151.44 12405.5,4149.13C12381.2,4182.7 12366.9,4223.94 12366.9,4268.5C12366.9,4291.4 12370.7,4313.42 12377.7,4333.98C12395.3,4385.93 12433.3,4428.5 12482.1,4452.18C12489.7,4454.32 12497.6,4455.86 12505.6,4456.74C12500.5,4456.68 12495.3,4456.39 12490.3,4455.91Z" style="fill:rgb(222,232,241);"/></g></g><g transform="matrix(3.66047,0,0,3.66047,-20932.8,-14329.5)"><g transform="matrix(42.4055,0,0,41.6667,9530.03,4071.22)"><path d="M1.111,-0.669L1.111,-0L0.928,-0L0.928,-0.424L0.656,-0.06L0.499,-0.06L0.227,-0.424L0.227,-0L0.044,-0L0.044,-0.669L0.233,-0.669L0.577,-0.2L0.921,-0.669L1.111,-0.669Z" style="fill:rgb(222,232,241);fill-rule:nonzero;"/></g><g transform="matrix(42.4055,0,0,41.6667,9591.72,4071.22)"><path d="M0.439,-0.669L0.015,-0L0.211,-0L0.304,-0.146L0.757,-0.146L0.849,-0L1.046,-0L0.621,-0.669L0.439,-0.669ZM0.531,-0.503L0.667,-0.288L0.394,-0.288L0.531,-0.503Z" style="fill:rgb(222,232,241);fill-rule:nonzero;"/></g><g transform="matrix(42.4055,0,0,41.6667,9649.41,4071.22)"><path d="M0.044,-0L0.044,-0.669L0.227,-0.669L0.227,-0.149L0.835,-0.149L0.835,-0L0.044,-0Z" style="fill:rgb(222,232,241);fill-rule:nonzero;"/></g></g><g transform="matrix(1.03451,0,0,1.03451,4263.13,-3602.81)"><g transform="matrix(42.4055,0,0,41.6667,9530.03,4071.22)"><path d="M0.044,-0.584L0.044,-0L0.216,-0L0.216,-0.178L0.613,-0.178C0.675,-0.178 0.727,-0.197 0.771,-0.237C0.814,-0.277 0.836,-0.325 0.836,-0.38C0.836,-0.437 0.814,-0.485 0.771,-0.524C0.727,-0.564 0.674,-0.584 0.613,-0.584L0.044,-0.584ZM0.216,-0.442L0.599,-0.442C0.619,-0.442 0.635,-0.436 0.648,-0.424C0.661,-0.413 0.667,-0.398 0.667,-0.38C0.667,-0.362 0.661,-0.347 0.648,-0.335C0.635,-0.325 0.619,-0.319 0.599,-0.319L0.216,-0.319L0.216,-0.442Z" style="fill:rgb(1,138,190);fill-rule:nonzero;"/></g><g transform="matrix(42.4055,0,0,41.6667,9582.05,4071.22)"><path d="M0.044,-0.584L0.044,-0L0.216,-0L0.216,-0.206L0.463,-0.206L0.634,-0L0.837,-0L0.65,-0.21C0.698,-0.219 0.739,-0.241 0.771,-0.274C0.803,-0.31 0.819,-0.35 0.819,-0.395C0.819,-0.448 0.799,-0.493 0.758,-0.529C0.718,-0.566 0.669,-0.584 0.611,-0.584L0.044,-0.584ZM0.216,-0.442L0.596,-0.442C0.613,-0.442 0.625,-0.438 0.634,-0.429C0.644,-0.42 0.648,-0.409 0.648,-0.394C0.648,-0.38 0.644,-0.369 0.634,-0.36C0.625,-0.351 0.613,-0.347 0.596,-0.347L0.216,-0.347L0.216,-0.442Z" style="fill:rgb(1,138,190);fill-rule:nonzero;"/></g><g transform="matrix(42.4055,0,0,41.6667,9634.08,4071.22)"><path d="M0.234,-0.584C0.182,-0.584 0.137,-0.567 0.099,-0.533C0.063,-0.499 0.044,-0.458 0.044,-0.41L0.044,-0.173C0.044,-0.125 0.063,-0.085 0.1,-0.051C0.138,-0.017 0.183,-0 0.235,-0L0.679,-0C0.733,-0 0.778,-0.017 0.815,-0.05C0.853,-0.084 0.872,-0.125 0.872,-0.173L0.872,-0.41C0.872,-0.458 0.853,-0.499 0.814,-0.533C0.777,-0.567 0.732,-0.584 0.679,-0.584L0.234,-0.584ZM0.281,-0.442L0.634,-0.442C0.652,-0.442 0.667,-0.436 0.68,-0.424C0.692,-0.413 0.699,-0.399 0.699,-0.383L0.699,-0.2C0.699,-0.184 0.692,-0.17 0.68,-0.158C0.668,-0.148 0.652,-0.143 0.634,-0.143L0.281,-0.143C0.263,-0.143 0.248,-0.148 0.235,-0.158C0.223,-0.17 0.216,-0.184 0.216,-0.2L0.216,-0.383C0.216,-0.399 0.222,-0.413 0.235,-0.424C0.248,-0.436 0.263,-0.442 0.281,-0.442Z" style="fill:rgb(1,138,190);fill-rule:nonzero;"/></g><g transform="matrix(42.4055,0,0,41.6667,9687.61,4071.22)"><path d="M0.324,-0.584L0.324,-0.2C0.324,-0.184 0.317,-0.17 0.305,-0.158C0.292,-0.148 0.277,-0.143 0.259,-0.143L0.044,-0.143L0.044,-0L0.305,-0C0.358,-0 0.403,-0.017 0.44,-0.05C0.478,-0.084 0.497,-0.125 0.497,-0.173L0.497,-0.584L0.324,-0.584Z" style="fill:rgb(1,138,190);fill-rule:nonzero;"/></g><g transform="matrix(42.4055,0,0,41.6667,9725.27,4071.22)"><path d="M0.044,-0.584L0.044,-0L0.764,-0L0.764,-0.142L0.217,-0.142L0.217,-0.225L0.691,-0.225L0.691,-0.364L0.217,-0.364L0.217,-0.442L0.764,-0.442L0.764,-0.584L0.044,-0.584Z" style="fill:rgb(1,138,190);fill-rule:nonzero;"/></g><g transform="matrix(42.4055,0,0,41.6667,9774.19,4071.22)"><path d="M0.234,-0.584C0.182,-0.584 0.137,-0.567 0.099,-0.533C0.063,-0.499 0.044,-0.458 0.044,-0.41L0.044,-0.173C0.044,-0.125 0.063,-0.085 0.1,-0.051C0.138,-0.017 0.183,-0 0.236,-0L0.667,-0C0.72,-0 0.765,-0.017 0.802,-0.05C0.84,-0.084 0.859,-0.125 0.859,-0.173L0.859,-0.217L0.686,-0.217L0.686,-0.2C0.686,-0.184 0.68,-0.17 0.667,-0.158C0.655,-0.148 0.64,-0.143 0.621,-0.143L0.281,-0.143C0.263,-0.143 0.248,-0.148 0.235,-0.158C0.223,-0.17 0.216,-0.184 0.216,-0.2L0.216,-0.383C0.216,-0.399 0.222,-0.413 0.235,-0.424C0.248,-0.436 0.263,-0.442 0.281,-0.442L0.622,-0.442C0.639,-0.442 0.655,-0.436 0.667,-0.424C0.68,-0.413 0.686,-0.4 0.686,-0.383L0.686,-0.366L0.859,-0.366L0.859,-0.41C0.859,-0.458 0.84,-0.499 0.802,-0.533C0.765,-0.567 0.719,-0.584 0.666,-0.584L0.234,-0.584Z" style="fill:rgb(1,138,190);fill-rule:nonzero;"/></g><g transform="matrix(42.4055,0,0,41.6667,9827.19,4071.22)"><path d="M0.044,-0.584L0.044,-0.442L0.339,-0.442L0.339,-0L0.511,-0L0.511,-0.442L0.806,-0.442L0.806,-0.584L0.044,-0.584Z" style="fill:rgb(1,138,190);fill-rule:nonzero;"/></g><g transform="matrix(42.4055,0,0,41.6667,9877.89,4071.22)"><path d="M0.604,-0.584L0.239,-0.584C0.186,-0.582 0.14,-0.564 0.102,-0.529C0.064,-0.495 0.045,-0.454 0.045,-0.405C0.045,-0.355 0.064,-0.313 0.103,-0.278C0.142,-0.243 0.188,-0.225 0.242,-0.225L0.608,-0.225C0.621,-0.226 0.632,-0.222 0.641,-0.213C0.65,-0.204 0.655,-0.194 0.655,-0.183C0.655,-0.171 0.65,-0.161 0.641,-0.153C0.632,-0.145 0.621,-0.141 0.608,-0.141L0.252,-0.141C0.24,-0.141 0.229,-0.145 0.22,-0.153C0.211,-0.162 0.207,-0.172 0.207,-0.183L0.207,-0.187L0.044,-0.187L0.044,-0.184C0.044,-0.133 0.064,-0.09 0.103,-0.054C0.142,-0.018 0.19,-0 0.245,-0L0.622,-0C0.678,-0 0.726,-0.018 0.765,-0.054C0.805,-0.09 0.825,-0.133 0.825,-0.184C0.825,-0.235 0.805,-0.279 0.765,-0.314C0.726,-0.351 0.678,-0.369 0.622,-0.369C0.585,-0.37 0.526,-0.37 0.446,-0.369C0.367,-0.368 0.308,-0.368 0.27,-0.368C0.259,-0.368 0.25,-0.372 0.242,-0.378C0.234,-0.386 0.23,-0.395 0.23,-0.404C0.23,-0.415 0.234,-0.423 0.242,-0.43C0.25,-0.437 0.259,-0.44 0.27,-0.44L0.592,-0.44C0.603,-0.44 0.613,-0.437 0.621,-0.43C0.628,-0.424 0.632,-0.415 0.632,-0.405L0.632,-0.401L0.8,-0.401L0.8,-0.405C0.8,-0.455 0.781,-0.497 0.743,-0.531C0.705,-0.566 0.658,-0.584 0.604,-0.584Z" style="fill:rgb(1,138,190);fill-rule:nonzero;"/></g></g></g></g></g></svg>