<?xml version="1.0" encoding="utf-8"?>
<!-- Svg Vector Icons : http://www.onlinewebfonts.com/icon -->
<!DOCTYPE svg PUBLIC "-//W3C//DTD SVG 1.1//EN" "http://www.w3.org/Graphics/SVG/1.1/DTD/svg11.dtd">
<svg version="1.1" xmlns="http://www.w3.org/2000/svg" xmlns:xlink="http://www.w3.org/1999/xlink" x="0px" y="0px" viewBox="0 0 256 256" enable-background="new 0 0 256 256" xml:space="preserve">
<metadata> Svg Vector Icons : http://www.onlinewebfonts.com/icon </metadata>
<g><g><g><path fill="#000000" d="M116.8,10.5c-21.3,2-42.3,10.2-60,23.4c-6,4.4-18.5,16.9-22.9,22.9C2,99.6,2,156.9,33.9,199.4c1.9,2.5,6.2,7.4,9.5,10.8c10.4,10.7,19.4,17.3,32.8,23.9c11.9,5.9,23.4,9.4,37.4,11.3c5.4,0.8,23.6,0.8,29.1,0c21.5-3,40.1-10.7,56.9-23.3c5.5-4.1,15.6-13.9,20.2-19.5c11.5-14.1,20.5-33.1,23.9-50.2c2-9.8,2.4-13.6,2.4-24.4c0-10.8-0.4-14.6-2.4-24.4c-3.4-16.9-12.3-35.7-23.6-49.7c-4.8-6-14.8-15.7-20.7-20.1C175.6,16.1,146.1,7.7,116.8,10.5z M137.4,32.6c33.1,3.4,62.3,23.6,76.8,53.3c23.3,47.7,3.7,105-43.9,128.3c-47.6,23.3-105.1,3.7-128.3-43.8C18.7,122.7,38.4,65.3,85.9,42C101.9,34.2,120.1,30.9,137.4,32.6z"/><path fill="#000000" d="M113.1,69.6c-0.1,0.3-5.1,13.6-11,29.4l-10.8,28.8L106,128l14.7,0.1l-11,33c-6,18.1-10.8,33-10.7,33c0.2,0,20.2-19.8,44.4-44.1l44.1-44.1l-21.8-0.1l-21.7-0.1l5.9-15.7c3.2-8.6,6.3-16.9,6.9-18.4l1-2.6h-22.2C118.2,69.1,113.3,69.2,113.1,69.6z"/></g></g></g>
</svg>