<?xml version="1.0" encoding="UTF-8" standalone="no"?><!DOCTYPE svg PUBLIC "-//W3C//DTD SVG 1.1//EN" "http://www.w3.org/Graphics/SVG/1.1/DTD/svg11.dtd"><svg width="100%" height="100%" viewBox="0 0 372 544" version="1.1" xmlns="http://www.w3.org/2000/svg" xmlns:xlink="http://www.w3.org/1999/xlink" xml:space="preserve" xmlns:serif="http://www.serif.com/" style="fill-rule:evenodd;clip-rule:evenodd;stroke-linejoin:round;stroke-miterlimit:2;"><rect id="Artboard2" x="-84.213" y="1.847" width="540" height="540" style="fill:none;"/><clipPath id="_clip1"><rect id="Artboard21" serif:id="Artboard2" x="-84.213" y="1.847" width="540" height="540"/></clipPath><g clip-path="url(#_clip1)"><path d="M0.739,449.877c16.744,-13.297 24.377,-19.453 22.9,-18.468c48.263,-39.891 86.306,-72.64 114.131,-98.249c27.825,-25.609 51.341,-52.449 70.547,-80.52c19.207,-28.071 28.81,-55.403 28.81,-81.997c0,-20.192 -4.678,-35.951 -14.035,-47.278c-9.357,-11.327 -23.393,-16.99 -42.107,-16.99c-18.714,-0 -33.365,7.018 -43.954,21.053c-10.588,14.036 -15.882,33.858 -15.882,59.467l-121.149,-0c0,-41.861 8.511,-76.827 25.532,-104.898c17.029,-28.071 39.483,-48.755 67.361,-62.052c27.887,-13.297 58.855,-19.945 92.905,-19.945c58.72,0 103.008,15.021 132.865,45.062c29.856,30.041 44.784,69.192 44.784,117.455c0,52.695 -17.975,101.573 -53.926,146.635c-35.951,45.061 -81.751,89.015 -137.401,131.86l199.453,0l0,102.682l-370.834,-0l-0,-93.817Z" style="fill:#004480;fill-rule:nonzero;"/></g></svg>