<?xml version="1.0" encoding="UTF-8" standalone="no"?><!DOCTYPE svg PUBLIC "-//W3C//DTD SVG 1.1//EN" "http://www.w3.org/Graphics/SVG/1.1/DTD/svg11.dtd"><svg width="100%" height="100%" viewBox="0 0 376 557" version="1.1" xmlns="http://www.w3.org/2000/svg" xmlns:xlink="http://www.w3.org/1999/xlink" xml:space="preserve" xmlns:serif="http://www.serif.com/" style="fill-rule:evenodd;clip-rule:evenodd;stroke-linejoin:round;stroke-miterlimit:2;"><rect id="Artboard3" x="-82.367" y="8.126" width="540" height="540" style="fill:none;"/><clipPath id="_clip1"><rect id="Artboard31" serif:id="Artboard3" x="-82.367" y="8.126" width="540" height="540"/></clipPath><g clip-path="url(#_clip1)"><path d="M6.648,164.733c1.97,-52.695 19.207,-93.324 51.71,-121.888c32.504,-28.563 76.58,-42.845 132.23,-42.845c36.936,0 68.578,6.402 94.925,19.207c26.347,12.804 46.293,30.287 59.836,52.448c13.543,22.162 20.314,47.032 20.314,74.61c0,32.504 -8.125,58.974 -24.377,79.412c-16.252,20.438 -35.212,34.35 -56.881,41.738l-0,2.954c28.071,9.357 50.232,24.87 66.484,46.539c16.252,21.669 24.378,49.494 24.378,83.475c-0,30.534 -7.018,57.497 -21.054,80.889c-14.035,23.393 -34.473,41.738 -61.313,55.034c-26.84,13.297 -58.728,19.946 -95.663,19.946c-59.097,-0 -106.252,-14.528 -141.464,-43.584c-35.212,-29.057 -53.803,-72.887 -55.773,-131.492l122.627,0c-0,21.669 5.94,38.783 17.821,51.341c11.889,12.558 29.225,18.837 52.01,18.837c19.314,0 34.296,-5.54 44.946,-16.621c10.65,-11.08 15.975,-25.732 15.975,-43.953c-0,-23.639 -7.51,-40.753 -22.531,-51.341c-15.02,-10.588 -39.029,-15.882 -72.024,-15.882l-23.639,-0l-0,-102.681l23.639,-0c25.116,-0 45.43,-4.31 60.943,-12.928c15.513,-8.618 23.27,-24.008 23.27,-46.17c-0,-17.729 -4.925,-31.518 -14.774,-41.368c-9.85,-9.849 -23.393,-14.774 -40.63,-14.774c-18.714,0 -32.626,5.664 -41.737,16.991c-9.111,11.326 -14.405,25.362 -15.882,42.106l-123.366,0Z" style="fill:#004480;fill-rule:nonzero;"/></g></svg>