<?xml version="1.0" encoding="UTF-8" standalone="no"?><!DOCTYPE svg PUBLIC "-//W3C//DTD SVG 1.1//EN" "http://www.w3.org/Graphics/SVG/1.1/DTD/svg11.dtd"><svg width="100%" height="100%" viewBox="0 0 382 540" version="1.1" xmlns="http://www.w3.org/2000/svg" xmlns:xlink="http://www.w3.org/1999/xlink" xml:space="preserve" xmlns:serif="http://www.serif.com/" style="fill-rule:evenodd;clip-rule:evenodd;stroke-linejoin:round;stroke-miterlimit:2;"><rect id="Artboard5" x="-79.412" y="0" width="540" height="540" style="fill:none;"/><clipPath id="_clip1"><rect id="Artboard51" serif:id="Artboard5" x="-79.412" y="0" width="540" height="540"/></clipPath><g clip-path="url(#_clip1)"><path d="M350.15,110.807l-230.478,0l-0,101.943c9.849,-10.835 23.639,-19.699 41.368,-26.594c17.729,-6.895 36.935,-10.342 57.619,-10.342c36.936,-0 67.593,8.372 91.97,25.116c24.378,16.744 42.23,38.413 53.557,65.007c11.327,26.594 16.99,55.404 16.99,86.43c0,57.619 -16.317,103.296 -48.951,137.031c-32.626,33.735 -78.604,50.602 -137.932,50.602c-39.552,0 -73.913,-6.772 -103.085,-20.315c-29.164,-13.543 -51.656,-32.38 -67.477,-56.511c-15.821,-24.132 -23.731,-51.956 -23.731,-83.475l122.627,0c2.954,15.267 10.095,27.948 21.422,38.044c11.327,10.096 26.84,15.143 46.539,15.143c23.147,0 40.383,-7.387 51.71,-22.161c11.327,-14.774 16.991,-34.473 16.991,-59.097c-0,-24.131 -5.91,-42.599 -17.729,-55.404c-11.82,-12.804 -29.057,-19.206 -51.71,-19.206c-16.745,-0 -30.534,4.063 -41.368,12.189c-10.835,8.125 -17.976,18.837 -21.423,32.134l-121.888,-0l-0,-321.341l344.979,0l0,110.807Z" style="fill:#004480;fill-rule:nonzero;"/></g></svg>